<?xml version="1.0" standalone="no"?>
<!DOCTYPE svg PUBLIC "-//W3C//DTD SVG 20010904//EN"
 "http://www.w3.org/TR/2001/REC-SVG-20010904/DTD/svg10.dtd">
<svg version="1.0" xmlns="http://www.w3.org/2000/svg"
 width="1200.000000pt" height="1200.000000pt" viewBox="0 0 1200.000000 1200.000000"
 preserveAspectRatio="xMidYMid meet">

<g transform="translate(0.000000,1200.000000) scale(0.100000,-0.100000)"
fill="#000000" stroke="none">
<path d="M1193 11783 c-29 -2 -53 -9 -53 -15 0 -14 76 -117 210 -288 59 -74
125 -160 146 -191 21 -31 83 -118 137 -193 l98 -136 -5 -61 c-9 -104 4 -138
177 -471 61 -116 58 -112 142 -243 32 -49 89 -154 127 -232 38 -79 74 -143 80
-143 6 0 8 9 3 23 -14 46 -17 142 -5 194 12 55 60 154 110 228 55 80 204 205
288 240 104 45 241 59 357 39 111 -20 114 -19 59 30 -27 24 -140 125 -252 225
-111 99 -209 181 -217 181 -9 0 -24 -6 -35 -12 -14 -9 -24 -10 -34 -3 -214
154 -295 201 -374 216 l-64 12 -72 91 c-39 50 -83 107 -96 126 -80 116 -301
367 -334 379 -27 10 -269 12 -393 4z m296 -85 c-2 -21 12 -57 25 -61 6 -2 3
-3 -6 -2 -11 2 -18 -4 -19 -13 -1 -19 -4 -11 -14 32 -6 27 -7 27 -20 10 -13
-17 -14 -17 -15 -2 0 9 9 20 20 23 11 3 20 11 20 16 0 5 2 9 5 9 3 0 5 -6 4
-12z m99 -110 c28 -28 1 -68 -46 -68 -40 0 -48 25 -17 56 27 27 45 30 63 12z
m59 -114 c-3 -3 -12 -4 -19 -1 -8 3 -5 6 6 6 11 1 17 -2 13 -5z m-43 -31 c-11
-12 -18 -12 -29 -3 -20 17 -10 28 19 23 22 -5 24 -7 10 -20z m130 -49 c9 -23
7 -34 -5 -34 -6 0 -19 -10 -28 -21 -15 -18 -21 -20 -39 -10 -24 13 -30 41 -8
41 7 0 16 9 19 20 6 24 52 28 61 4z m74 -97 c4 -19 -24 -57 -41 -57 -6 0 -1
10 11 23 28 29 27 35 0 47 -23 10 -23 10 2 7 15 -1 26 -9 28 -20z m71 -96 c-2
-23 -2 -24 -6 -3 -3 15 -12 22 -26 22 -17 0 -19 2 -8 9 22 14 41 1 40 -28z
m-45 -33 c21 -18 12 -23 -18 -12 -9 4 -16 17 -15 33 0 15 3 20 6 11 3 -8 15
-23 27 -32z"/>
<path d="M1536 11575 c-26 -26 -15 -52 17 -39 22 8 28 31 12 44 -10 8 -17 7
-29 -5z"/>
<path d="M1690 11375 c0 -13 4 -14 20 -5 11 6 20 13 20 15 0 3 -9 5 -20 5 -11
0 -20 -7 -20 -15z"/>
<path d="M9738 11779 c-26 -4 -73 -22 -105 -41 -80 -46 -90 -49 -118 -36 -23
10 -32 7 -88 -32 -34 -24 -111 -77 -172 -119 -121 -82 -145 -105 -145 -133 0
-11 -4 -17 -9 -14 -4 3 -33 -16 -64 -42 -30 -26 -74 -63 -97 -82 -24 -19 -51
-42 -60 -50 -10 -8 -27 -22 -37 -30 -10 -8 -40 -32 -66 -53 -52 -43 -60 -67
-22 -67 14 0 25 4 25 9 0 13 72 81 86 81 7 0 14 7 18 15 3 8 25 28 49 43 56
35 107 86 107 105 0 9 15 21 34 27 19 6 53 29 75 52 23 22 41 38 41 35 0 -3
16 1 35 9 70 29 158 16 283 -42 122 -57 186 -140 257 -334 31 -87 37 -202 13
-260 -8 -19 -18 -48 -22 -63 -14 -57 1 -44 222 198 15 17 52 53 82 80 51 47
55 53 55 96 0 38 6 55 35 90 61 76 98 126 110 149 6 12 18 29 25 38 58 70 78
103 95 159 11 36 20 73 20 83 0 10 21 41 46 69 26 29 45 54 42 56 -7 7 -702
11 -750 4z"/>
<path d="M8550 10909 c0 -5 5 -7 10 -4 6 3 10 8 10 11 0 2 -4 4 -10 4 -5 0
-10 -5 -10 -11z"/>
<path d="M8524 10901 c4 -5 0 -12 -6 -14 -7 -3 0 -6 16 -6 24 -1 27 1 16 14
-13 16 -35 21 -26 6z"/>
<path d="M8415 10810 c3 -5 8 -10 11 -10 2 0 4 5 4 10 0 6 -5 10 -11 10 -5 0
-7 -4 -4 -10z"/>
<path d="M8386 10773 c-6 -14 -5 -15 5 -6 7 7 10 15 7 18 -3 3 -9 -2 -12 -12z"/>
<path d="M8075 10540 c3 -5 10 -10 16 -10 5 0 9 5 9 10 0 6 -7 10 -16 10 -8 0
-12 -4 -9 -10z"/>
<path d="M7980 10452 c-8 -3 -21 -13 -28 -24 -7 -10 -21 -18 -30 -18 -19 -1
-72 -44 -72 -59 0 -28 27 -20 65 20 23 24 53 51 66 60 25 18 25 30 -1 21z"/>
<path d="M7717 10257 c-20 -18 -37 -38 -37 -45 0 -7 -4 -11 -9 -8 -5 3 -19 -2
-32 -13 -13 -10 -45 -30 -71 -45 -27 -16 -48 -31 -48 -35 0 -4 36 -3 80 3 68
7 80 12 75 25 -6 20 47 81 69 81 9 0 16 6 16 14 0 8 7 16 15 20 21 8 19 36 -2
36 -10 -1 -35 -15 -56 -33z"/>
<path d="M3350 10121 c0 -14 18 -23 31 -15 8 4 7 9 -2 15 -18 11 -29 11 -29 0z"/>
<path d="M7503 9980 c-48 -29 -41 -40 25 -38 51 2 92 -3 173 -18 30 -6 82 -50
92 -77 5 -14 2 -20 -12 -24 -11 -3 -27 -20 -36 -39 -9 -19 -21 -34 -28 -34 -7
-1 1 -8 16 -16 23 -12 27 -20 22 -37 -3 -12 -9 -41 -12 -64 -4 -34 -2 -44 11
-49 17 -6 58 15 89 47 24 26 47 24 80 -6 22 -21 27 -35 27 -71 0 -65 -46 -161
-67 -140 -4 3 -2 11 4 17 8 8 6 16 -7 29 -14 14 -26 16 -61 10 -37 -7 -56 -22
-138 -105 l-96 -98 55 -19 c46 -16 71 -18 150 -13 108 7 160 20 160 41 0 8 -4
14 -10 14 -20 0 -9 39 23 87 44 66 63 145 49 209 -17 77 -40 209 -37 212 1 1
22 -25 46 -59 24 -34 51 -68 59 -77 14 -14 15 -13 18 10 4 36 -28 97 -85 159
-77 83 -153 123 -153 80 0 -40 -22 -33 -104 33 -73 57 -191 74 -253 36z m345
-182 c17 -17 15 -38 -3 -38 -12 0 -35 28 -35 44 0 11 26 6 38 -6z"/>
<path d="M7529 9820 c-19 -17 -47 -43 -64 -58 -16 -15 -57 -49 -90 -75 -33
-27 -67 -54 -75 -60 -8 -7 -55 -44 -105 -82 -49 -38 -196 -153 -325 -255 -129
-102 -261 -206 -292 -229 -32 -24 -58 -47 -58 -51 0 -4 -10 -11 -22 -17 -28
-13 -128 -102 -128 -113 0 -5 28 -7 63 -4 58 4 65 2 87 -21 13 -14 34 -25 47
-25 40 0 106 51 97 75 -3 5 -20 20 -39 33 -19 12 -35 26 -35 30 1 9 68 52 81
52 5 0 9 -7 9 -15 0 -19 24 -20 39 -1 9 11 9 15 -1 18 -10 4 -10 10 -1 29 8
16 12 19 12 8 1 -25 27 -43 35 -24 3 9 0 15 -9 15 -8 0 -15 7 -15 16 0 22 19
54 31 54 6 0 59 42 118 93 58 51 129 110 156 131 28 21 60 48 72 59 33 33 51
47 60 47 4 0 33 23 62 50 30 28 58 50 63 50 4 0 40 28 80 63 40 34 103 87 141
116 81 64 98 89 71 108 -24 18 -26 17 -65 -17z"/>
<path d="M6908 9193 c7 -3 16 -2 19 1 4 3 -2 6 -13 5 -11 0 -14 -3 -6 -6z"/>
<path d="M6861 9167 c-15 -15 -14 -37 3 -37 22 0 36 23 21 37 -9 8 -15 9 -24
0z"/>
<path d="M6845 9110 c-3 -5 -1 -10 4 -10 6 0 11 5 11 10 0 6 -2 10 -4 10 -3 0
-8 -4 -11 -10z"/>
<path d="M6790 9085 c0 -16 16 -20 24 -6 3 5 -1 11 -9 15 -9 3 -15 0 -15 -9z"/>
<path d="M3250 9080 c0 -5 5 -10 10 -10 6 0 10 5 10 10 0 6 -4 10 -10 10 -5 0
-10 -4 -10 -10z"/>
<path d="M3325 8970 c-3 -5 -1 -10 4 -10 6 0 11 5 11 10 0 6 -2 10 -4 10 -3 0
-8 -4 -11 -10z"/>
<path d="M3275 8940 c3 -5 8 -10 11 -10 2 0 4 5 4 10 0 6 -5 10 -11 10 -5 0
-7 -4 -4 -10z"/>
<path d="M3490 8865 c0 -8 2 -15 4 -15 2 0 6 7 10 15 3 8 1 15 -4 15 -6 0 -10
-7 -10 -15z"/>
<path d="M6642 8830 l-41 -30 15 -35 c18 -43 0 -49 -36 -10 -24 26 -60 34 -60
14 0 -6 -11 -20 -25 -31 -20 -16 -23 -23 -15 -39 6 -11 8 -34 5 -53 -5 -26 -3
-35 11 -40 21 -8 60 17 69 44 7 23 17 25 45 8 16 -10 24 -10 39 -1 17 11 21 8
30 -19 6 -17 11 -44 11 -59 0 -41 13 -42 47 -6 40 42 46 63 37 148 -6 58 -11
75 -33 95 -47 45 -55 46 -99 14z"/>
<path d="M3466 8833 c-6 -14 -5 -15 5 -6 7 7 10 15 7 18 -3 3 -9 -2 -12 -12z"/>
<path d="M6353 8798 c-7 -13 -18 -35 -25 -50 -17 -39 -45 -50 -98 -41 -25 5
-55 7 -67 5 -21 -3 -64 -39 -65 -54 0 -4 -8 -47 -19 -95 -34 -153 -20 -130 39
66 5 18 15 24 41 26 18 2 40 10 48 18 11 11 30 14 73 10 l58 -6 27 42 c17 29
23 46 17 54 -6 7 -11 20 -13 30 -4 16 -6 15 -16 -5z"/>
<path d="M3584 8755 c-10 -8 -14 -15 -8 -15 6 0 17 7 24 15 16 19 9 19 -16 0z"/>
<path d="M4610 8680 c-21 -7 -18 -8 17 -7 23 0 40 4 37 9 -6 9 -20 9 -54 -2z"/>
<path d="M4668 8637 c-16 -6 -28 -17 -28 -25 0 -14 10 -13 90 3 8 2 20 4 25 5
13 1 -13 16 -40 23 -11 2 -32 0 -47 -6z"/>
<path d="M6413 8601 c-27 -23 -32 -81 -8 -81 8 0 15 7 15 15 0 8 11 25 25 39
14 14 25 30 25 36 0 16 -33 11 -57 -9z"/>
<path d="M6270 8560 c-8 -5 -25 -10 -37 -10 -13 0 -23 -5 -23 -11 0 -6 -27
-40 -60 -76 -99 -105 -73 -133 62 -67 52 25 81 34 101 30 41 -8 75 3 83 26 9
28 -14 65 -44 73 -15 4 -32 15 -40 26 -15 21 -21 23 -42 9z"/>
<path d="M4410 8514 c-105 -44 -137 -61 -173 -91 -16 -13 -34 -23 -41 -23 -14
0 -188 -185 -198 -211 -10 -25 0 -49 21 -49 9 0 44 29 79 64 63 64 78 67 42 8
-11 -18 -20 -39 -20 -47 0 -8 -5 -15 -11 -15 -7 0 -9 -10 -7 -24 3 -14 0 -27
-7 -30 -15 -5 -27 -46 -14 -46 5 0 9 -13 9 -30 0 -16 -4 -30 -10 -30 -18 0
-11 -104 10 -149 13 -25 18 -50 14 -63 -5 -17 -12 -20 -45 -15 -21 3 -39 1
-39 -3 0 -11 66 -62 110 -86 65 -35 350 -20 350 18 0 5 5 6 10 3 6 -3 13 0 16
9 6 15 -7 45 -28 68 -7 7 -25 29 -39 48 -15 19 -37 46 -49 60 -12 14 -29 35
-37 47 -11 17 -21 21 -38 17 -21 -5 -24 -2 -30 33 -3 21 -10 46 -16 55 -12 22
21 58 53 58 12 0 18 -3 15 -6 -12 -12 14 -44 51 -63 20 -10 46 -28 56 -40 11
-12 22 -21 26 -21 15 0 19 30 6 42 -7 8 -21 30 -30 50 -19 40 -15 68 15 107
25 31 24 51 -2 51 -25 0 -16 18 17 30 23 9 34 40 15 40 -5 0 -17 7 -26 16 -14
14 -20 15 -43 3 -15 -7 -31 -15 -35 -17 -5 -2 -7 9 -5 24 2 19 13 35 35 49 18
11 33 25 33 30 0 6 9 20 19 32 21 26 91 32 154 15 25 -7 39 -7 43 0 7 10 90 6
132 -7 39 -12 26 22 -20 52 -33 23 -55 28 -115 32 -69 3 -77 1 -116 -26 -72
-51 -177 -82 -177 -52 0 13 69 79 82 79 5 0 18 9 30 20 28 26 28 26 -72 -16z
m-178 -479 c-7 -14 -12 -56 -12 -92 0 -85 -22 -73 -28 15 -5 66 20 134 41 113
7 -7 7 -18 -1 -36z"/>
<path d="M3757 8513 c-4 -3 -7 -15 -7 -25 0 -26 24 -17 28 10 3 21 -8 29 -21
15z"/>
<path d="M6488 8493 c-20 -5 -23 -20 -9 -42 11 -17 80 -9 92 11 18 28 -28 46
-83 31z"/>
<path d="M4560 8368 c0 -21 21 -38 48 -38 19 0 23 5 20 23 -2 17 -11 23 -35
25 -23 2 -33 -1 -33 -10z"/>
<path d="M4626 8313 c-4 -11 4 -27 23 -47 73 -77 91 -99 91 -113 0 -9 -6 -13
-14 -10 -29 11 -25 -7 10 -47 113 -130 153 -172 287 -308 81 -82 147 -155 147
-161 0 -16 20 14 20 31 0 6 -5 12 -11 12 -12 0 -89 78 -89 90 0 4 -16 21 -35
37 -33 29 -45 53 -27 53 5 0 25 -17 45 -37 20 -21 61 -63 92 -93 30 -30 55
-60 55 -67 0 -7 6 -13 13 -13 8 0 127 -112 266 -250 139 -137 259 -250 267
-250 8 0 13 -3 12 -8 -2 -4 7 -18 19 -31 l22 -24 -34 -32 c-18 -18 -43 -36
-54 -40 -34 -10 -24 -39 28 -83 52 -44 80 -52 101 -28 11 14 45 28 103 40 15
4 27 12 27 19 0 6 -23 36 -50 65 -35 36 -59 52 -76 52 -15 0 -23 4 -19 10 8
13 -101 139 -180 208 -90 79 -180 164 -196 188 -8 12 -102 113 -210 225 -107
112 -210 220 -228 239 -186 198 -247 266 -271 298 -61 82 -119 114 -134 75z
m144 -193 c0 -5 -2 -10 -4 -10 -3 0 -8 5 -11 10 -3 6 -1 10 4 10 6 0 11 -4 11
-10z m65 -80 c3 -5 1 -10 -4 -10 -6 0 -11 5 -11 10 0 6 2 10 4 10 3 0 8 -4 11
-10z m95 -90 c0 -5 -7 -7 -15 -4 -8 4 -15 8 -15 10 0 2 7 4 15 4 8 0 15 -4 15
-10z m40 -45 c7 -8 9 -15 6 -15 -4 0 -14 7 -22 15 -9 8 -11 15 -6 15 5 0 15
-7 22 -15z"/>
<path d="M6194 8261 c8 -12 74 -24 87 -15 18 11 -11 24 -54 24 -21 0 -36 -4
-33 -9z"/>
<path d="M3817 7979 c7 -7 15 -10 18 -7 3 3 -2 9 -12 12 -14 6 -15 5 -6 -5z"/>
<path d="M5190 7627 c0 -18 35 -59 43 -50 4 3 10 -3 14 -13 9 -25 53 -67 62
-59 3 4 -6 17 -20 28 -15 12 -30 32 -34 45 -4 15 -12 21 -21 18 -9 -4 -18 4
-24 19 -10 27 -20 33 -20 12z"/>
<path d="M4820 7582 c0 -10 43 -52 54 -52 4 0 -2 10 -14 22 -11 12 -20 25 -20
30 0 4 -4 8 -10 8 -5 0 -10 -4 -10 -8z"/>
<path d="M5325 7470 c3 -5 8 -10 11 -10 2 0 4 5 4 10 0 6 -5 10 -11 10 -5 0
-7 -4 -4 -10z"/>
<path d="M4930 7460 c0 -5 5 -10 11 -10 5 0 7 5 4 10 -3 6 -8 10 -11 10 -2 0
-4 -4 -4 -10z"/>
<path d="M5384 7415 c8 -8 18 -15 22 -15 3 0 1 7 -6 15 -7 8 -17 15 -22 15 -5
0 -3 -7 6 -15z"/>
<path d="M5010 7376 c0 -5 11 -19 25 -32 14 -13 25 -26 25 -29 0 -4 6 -12 13
-20 20 -21 126 -137 171 -186 22 -25 75 -85 116 -134 41 -48 92 -106 112 -129
42 -46 43 -54 23 -111 -25 -69 -20 -97 29 -148 50 -53 66 -58 66 -22 0 14 10
44 21 67 19 37 23 40 34 25 14 -19 37 -22 65 -7 16 9 22 5 35 -20 16 -30 68
-70 93 -70 7 0 12 14 12 34 0 19 5 38 10 41 6 3 10 17 10 31 0 13 5 33 12 43
9 15 8 24 -5 45 -9 14 -17 32 -17 39 0 23 -47 27 -66 6 -10 -11 -24 -19 -33
-19 -9 0 -27 -12 -40 -25 -20 -22 -41 -32 -41 -21 0 2 20 28 45 57 25 29 45
60 45 70 0 9 -15 30 -34 47 -19 16 -36 37 -38 45 -3 14 -7 14 -41 -2 -21 -10
-53 -34 -72 -54 -36 -38 -71 -48 -81 -22 -4 8 -12 15 -19 15 -7 0 -38 31 -69
69 -31 38 -65 72 -76 76 -11 3 -20 12 -20 19 0 7 -22 36 -50 64 -27 28 -50 55
-50 59 -1 4 -17 22 -36 38 -20 17 -43 38 -52 49 -53 60 -122 123 -122 112z"/>
<path d="M5450 7332 c0 -12 23 -32 37 -32 18 0 16 27 -3 34 -21 8 -34 8 -34
-2z"/>
<path d="M5510 7272 c13 -23 32 -44 53 -61 24 -19 23 3 -2 28 -10 10 -20 24
-23 31 -2 7 -12 14 -21 16 -13 2 -15 -1 -7 -14z"/>
<path d="M5585 7190 c-3 -5 9 -22 26 -37 18 -15 44 -40 57 -55 25 -28 52 -37
52 -18 0 11 -110 120 -122 120 -4 0 -9 -4 -13 -10z"/>
<path d="M5957 6914 c-4 -4 -7 -16 -7 -26 0 -16 3 -17 21 -8 11 6 19 16 16 23
-4 14 -21 20 -30 11z"/>
<path d="M5970 6800 c0 -10 9 -24 20 -30 23 -12 27 -1 10 31 -14 25 -30 24
-30 -1z"/>
<path d="M6026 6705 c-20 -21 -21 -19 9 -49 31 -31 31 -37 3 -61 -15 -13 -18
-20 -10 -23 7 -2 22 4 32 13 14 13 28 16 55 11 27 -5 35 -4 35 8 0 10 18 21
47 29 46 13 47 14 24 26 -22 12 -55 11 -94 -4 -12 -5 -27 3 -51 29 -31 34 -35
36 -50 21z"/>
<path d="M6250 6563 c1 -36 30 -136 44 -150 3 -3 6 -15 6 -25 0 -10 5 -18 11
-18 7 0 9 11 4 33 -4 17 -9 64 -12 102 -5 71 -15 95 -39 95 -10 0 -14 -12 -14
-37z"/>
<path d="M5928 6559 c-44 -12 -48 -17 -37 -49 l11 -30 46 25 c26 14 53 25 60
25 8 0 12 6 10 12 -6 17 -56 26 -90 17z"/>
<path d="M5685 6483 c-29 -8 -36 -25 -18 -45 11 -12 20 -14 32 -7 9 5 29 14
45 19 17 7 26 14 20 20 -13 12 -55 19 -79 13z"/>
<path d="M6090 6475 c-7 -8 -23 -15 -36 -15 -13 0 -38 -12 -55 -27 -17 -16
-40 -30 -52 -33 -30 -8 -32 -39 -5 -73 17 -20 37 -30 73 -36 28 -5 95 -31 150
-60 106 -54 134 -61 159 -35 20 20 11 68 -27 139 -6 11 -24 46 -39 79 -28 55
-30 58 -59 52 -19 -3 -42 0 -59 9 -36 18 -35 18 -50 0z"/>
<path d="M5705 6370 c3 -5 10 -10 16 -10 5 0 9 5 9 10 0 6 -7 10 -16 10 -8 0
-12 -4 -9 -10z"/>
<path d="M10372 5894 c-19 -9 -74 -63 -818 -803 l-667 -664 -61 2 c-37 1 -81
-4 -111 -15 -65 -22 -320 -147 -335 -165 -3 -3 -40 -29 -82 -57 -42 -29 -108
-75 -145 -103 -37 -28 -102 -68 -143 -89 -41 -21 -84 -46 -95 -57 -11 -10 -32
-24 -47 -32 -31 -16 -84 -68 -76 -76 2 -3 27 -1 55 4 80 16 201 -1 277 -38 75
-36 76 -36 76 -15 0 11 5 14 16 10 9 -3 18 -6 20 -6 3 0 2 -5 -2 -12 -4 -6 -3
-8 4 -4 6 3 14 1 17 -5 4 -5 13 -8 20 -5 7 2 15 -4 18 -15 3 -12 0 -19 -9 -19
-8 0 -14 6 -15 13 0 6 -4 2 -10 -11 -6 -15 -13 -21 -21 -16 -7 5 -3 -5 10 -20
12 -16 22 -34 22 -41 0 -6 23 -40 50 -74 57 -72 74 -102 101 -179 17 -48 17
-55 3 -69 -8 -9 -12 -23 -9 -34 4 -12 2 -19 -6 -19 -6 0 -18 -8 -25 -17 -8
-11 -13 -13 -14 -5 0 6 -5 12 -11 12 -5 0 -7 -4 -4 -10 3 -5 1 -10 -5 -10 -6
0 -13 7 -16 15 -4 8 -10 15 -15 15 -10 0 10 -41 25 -51 5 -4 -1 -12 -14 -19
-15 -8 -20 -8 -16 -1 4 6 3 11 -3 11 -5 0 -13 -5 -16 -10 -4 -6 -15 -8 -26 -5
-15 5 -19 1 -19 -17 -1 -23 -18 -54 -32 -56 -5 -1 -13 -2 -19 -2 -8 0 -10 -13
-6 -37 5 -31 4 -34 -5 -18 -6 11 -12 22 -14 24 -1 1 -12 -4 -24 -12 -20 -14
-21 -16 -3 -20 14 -4 13 -5 -5 -6 -13 0 -21 -5 -18 -10 4 -5 -4 -7 -16 -4 -19
4 -20 3 -8 -6 12 -8 12 -11 1 -11 -7 0 -11 -6 -8 -14 7 -17 -20 -30 -29 -14
-4 7 -3 8 4 4 7 -4 12 -2 12 4 0 7 -6 10 -12 7 -7 -2 -12 -14 -10 -25 2 -15
-2 -22 -12 -22 -9 0 -16 -9 -16 -20 0 -11 -5 -20 -11 -20 -6 0 -9 -7 -5 -15 4
-10 -1 -15 -16 -15 -11 0 -27 -8 -35 -17 -8 -11 -11 -12 -7 -3 7 13 6 13 -10
0 -10 -8 -14 -16 -8 -18 6 -2 0 -13 -11 -26 -12 -12 -25 -21 -29 -19 -3 2 -16
-8 -27 -23 -11 -14 -25 -23 -30 -19 -7 4 -8 -1 -4 -11 5 -13 3 -16 -10 -11 -9
3 -17 2 -17 -3 0 -6 -8 -10 -17 -11 -11 0 -13 -3 -6 -6 10 -3 9 -10 -2 -27 -8
-12 -12 -26 -8 -30 4 -3 12 -39 19 -79 6 -40 12 -62 13 -49 1 13 5 21 10 18 5
-3 11 1 15 9 3 8 0 15 -7 16 -7 0 -1 5 13 11 14 6 28 10 33 10 4 -1 7 5 7 13
0 8 7 15 15 15 8 0 18 12 21 26 4 16 9 21 14 14 4 -7 16 2 31 25 13 19 32 38
41 41 9 3 26 20 38 39 11 18 34 40 50 47 17 7 30 19 30 26 0 15 50 61 66 62 7
0 15 7 18 16 3 8 10 13 15 9 13 -7 61 34 61 53 0 8 6 12 14 9 14 -6 56 27 56
43 0 13 56 41 65 32 5 -4 5 -2 1 5 -3 6 -1 15 7 20 7 4 20 24 30 43 18 39 20
34 8 -27 l-8 -42 28 30 c15 16 49 57 76 90 26 33 58 72 71 87 12 15 28 41 36
57 8 17 24 40 35 52 12 12 21 25 21 29 0 3 10 19 23 34 50 64 87 118 87 127 0
5 9 18 20 28 11 10 20 24 20 32 0 7 4 13 8 13 14 0 67 103 64 123 -2 9 12 50
31 90 68 140 99 230 104 299 l6 66 456 454 c251 250 620 617 821 816 239 237
362 364 355 371 -11 11 -322 24 -343 15z m-1765 -1706 c-3 -7 -5 -2 -5 12 0
14 2 19 5 13 2 -7 2 -19 0 -25z m293 -49 c0 -18 -2 -20 -16 -8 -13 11 -15 11
-14 -2 4 -28 0 -39 -16 -39 -11 0 -14 -8 -12 -32 2 -27 0 -32 -14 -30 -11 2
-18 -3 -18 -13 0 -9 -4 -14 -9 -10 -5 3 -12 1 -16 -5 -3 -5 -11 -10 -16 -10
-6 0 -7 5 -4 10 4 6 1 17 -5 25 -9 11 -9 15 -1 15 6 0 16 12 21 26 6 14 19 28
30 31 11 3 20 10 20 15 0 5 10 7 23 4 12 -3 16 -3 9 0 -10 5 -9 10 4 25 22 25
34 24 34 -2z m-319 -26 c-12 -20 -14 -14 -5 12 4 9 9 14 11 11 3 -2 0 -13 -6
-23z m-32 -93 c-11 -30 -17 -41 -14 -25 6 34 26 87 31 83 1 -2 -6 -28 -17 -58z
m-22 -107 c-3 -10 -5 -4 -5 12 0 17 2 24 5 18 2 -7 2 -21 0 -30z m-159 -40
c33 -25 41 -50 21 -70 -8 -8 -18 -4 -37 15 -17 19 -23 21 -19 9 6 -15 3 -17
-12 -12 -10 3 -31 0 -45 -6 -20 -10 -29 -10 -38 -1 -9 9 -7 12 10 12 18 0 22
5 20 29 -5 63 35 73 100 24z m177 -40 c14 -32 36 -69 48 -82 12 -13 16 -21 8
-16 -11 6 -13 4 -8 -9 4 -9 3 -15 -2 -11 -5 3 -12 -1 -14 -7 -6 -16 -98 82
-93 98 3 6 -1 17 -7 23 -9 10 -9 12 3 9 8 -2 20 -9 25 -16 8 -10 10 -2 10 27
0 23 0 41 2 41 1 0 13 -26 28 -57z m-195 -38 c-7 -9 -15 -13 -17 -11 -7 7 7
26 19 26 6 0 6 -6 -2 -15z m540 11 c0 -2 -7 -7 -16 -10 -8 -3 -12 -2 -9 4 6
10 25 14 25 6z m-600 -96 c0 -5 -7 -10 -15 -10 -8 0 -15 5 -15 10 0 6 7 10 15
10 8 0 15 -4 15 -10z m200 -4 c0 -3 -4 -8 -10 -11 -5 -3 -10 -1 -10 4 0 6 5
11 10 11 6 0 10 -2 10 -4z m-40 -56 c0 -5 -4 -10 -10 -10 -5 0 -10 5 -10 10 0
6 5 10 10 10 6 0 10 -4 10 -10z m-170 -464 c0 -3 -4 -8 -10 -11 -5 -3 -10 -1
-10 4 0 6 5 11 10 11 6 0 10 -2 10 -4z"/>
<path d="M4149 5473 c-9 -2 -19 -15 -22 -29 -4 -21 -1 -25 14 -21 11 3 19 1
19 -4 0 -5 -37 -10 -82 -10 -46 -1 -96 -4 -113 -8 -27 -6 -31 -3 -48 33 -19
43 -14 43 -118 0 -45 -18 -64 -31 -58 -38 54 -68 58 -72 59 -49 0 12 5 25 10
28 6 4 10 -10 10 -35 0 -39 1 -40 23 -28 12 7 25 11 29 10 4 -1 19 5 35 13 15
8 29 11 31 5 2 -5 13 -5 28 1 33 12 134 12 134 -1 0 -5 -17 -10 -38 -10 -38 0
-145 -24 -166 -37 -6 -4 -19 -6 -28 -5 -15 3 -18 -4 -18 -37 0 -22 4 -42 10
-46 5 -3 12 -33 16 -66 7 -62 28 -87 60 -75 9 3 12 1 9 -4 -3 -6 4 -10 16 -10
18 0 19 2 9 15 -7 9 -11 17 -9 18 2 1 13 9 23 17 18 13 19 13 12 0 -4 -8 1 -5
12 7 l20 23 6 -25 c9 -36 18 -31 39 20 12 28 25 45 35 45 12 0 14 3 5 8 -10 6
-10 17 -3 42 5 19 8 42 5 51 -3 10 1 19 11 23 9 4 14 13 10 21 -3 8 -1 15 4
15 6 0 10 12 10 28 0 21 2 24 10 12 9 -13 10 -13 11 0 1 8 1 18 0 22 0 4 6 5
14 2 8 -3 14 -9 13 -12 -2 -22 6 -30 35 -36 17 -3 56 -17 85 -31 30 -14 59
-22 65 -18 7 3 9 3 5 -2 -4 -4 -3 -14 3 -21 17 -20 -9 -28 -28 -8 -24 24 -89
51 -149 62 l-50 9 0 -33 c0 -18 4 -30 8 -27 5 2 18 1 31 -3 l22 -8 -25 -8
c-17 -5 -10 -6 23 -3 42 4 54 1 103 -32 47 -31 53 -38 41 -50 -12 -12 -20 -11
-52 11 -21 14 -47 26 -59 25 -18 -1 -17 -3 7 -12 24 -10 33 -29 28 -59 0 -5 3
-8 8 -8 5 0 11 9 13 20 6 37 30 5 30 -39 -1 -28 4 -44 14 -48 22 -8 17 -19
-16 -33 -62 -26 -18 -22 55 5 61 22 75 31 70 44 -4 9 -10 37 -15 62 -5 25 -18
70 -29 99 -22 58 -21 71 8 63 22 -6 61 -106 61 -157 l1 -31 29 33 c35 38 39
63 10 55 -11 -3 -18 -8 -16 -12 2 -3 0 -15 -4 -26 -5 -14 -9 -3 -14 40 -10 79
-18 95 -74 133 -46 31 -195 78 -213 66 -5 -3 -9 2 -9 11 0 9 -4 13 -10 10 -5
-3 -10 -2 -10 3 0 6 8 13 18 17 16 6 16 7 -2 21 -11 8 -22 13 -25 13 -3 -1
-13 -3 -22 -6z m-334 -73 c3 -5 2 -10 -4 -10 -5 0 -13 5 -16 10 -3 6 -2 10 4
10 5 0 13 -4 16 -10z m415 -90 c0 -5 10 -10 23 -10 29 0 53 -15 38 -24 -6 -4
-11 -3 -11 3 0 6 -7 8 -15 5 -18 -7 -85 14 -85 27 0 5 11 9 25 9 14 0 25 -4
25 -10z m-126 -46 c10 -26 -10 -41 -68 -48 -29 -3 -72 -13 -96 -21 -44 -16
-60 -13 -60 10 0 21 52 45 129 60 88 17 88 17 95 -1z m326 -113 c-1 -20 -6
-46 -13 -58 -10 -19 -14 -20 -30 -8 -20 14 -16 55 5 55 7 0 8 17 4 48 -3 27
-3 52 1 55 11 11 33 -51 33 -92z m-5 -89 c-15 -16 -16 -15 -4 12 7 15 15 23
17 16 3 -7 -3 -19 -13 -28z"/>
<path d="M1645 5451 c-3 -6 -37 -20 -74 -32 -69 -22 -69 -23 -54 -46 8 -12 19
-21 23 -18 23 14 -10 -46 -37 -70 -18 -15 -33 -34 -33 -43 0 -12 7 -9 28 11
18 17 35 25 45 22 12 -5 14 -2 10 13 -2 11 0 23 6 26 6 4 11 20 11 37 0 16 5
29 11 29 7 0 9 -18 7 -49 -3 -28 -2 -49 1 -47 79 33 121 46 121 35 0 -5 10 -5
23 0 39 15 121 22 137 11 8 -5 13 -10 10 -10 -3 -1 -31 -3 -63 -6 -33 -3 -82
-14 -110 -24 -29 -11 -60 -20 -69 -20 -14 0 -18 -9 -18 -39 0 -22 6 -44 15
-51 8 -7 15 -23 15 -35 0 -83 25 -108 95 -95 22 4 32 8 21 9 -15 1 -16 4 -6
15 8 11 18 12 36 5 23 -8 25 -7 19 13 -5 20 -5 21 5 5 7 -10 9 -25 6 -33 -3
-8 -2 -13 3 -10 5 4 7 -12 4 -36 -5 -36 -4 -41 11 -35 10 4 20 7 22 7 2 0 4
14 4 30 0 17 5 30 10 30 6 0 10 -9 10 -20 0 -13 7 -20 20 -20 16 0 20 7 20 31
0 25 -3 29 -19 24 -29 -9 -69 4 -74 26 -3 10 -1 17 3 14 12 -8 33 33 24 47 -5
8 2 9 22 4 l29 -6 -25 15 c-14 8 -19 14 -12 15 7 0 11 3 9 8 -8 12 12 115 24
126 8 8 9 5 4 -14 -4 -14 -4 -21 1 -17 4 4 9 20 10 35 3 49 4 51 19 46 8 -4
15 -1 15 5 0 6 5 11 10 11 5 0 9 -3 9 -7 -4 -27 4 -41 29 -46 41 -8 134 -45
157 -63 17 -12 18 -16 5 -24 -10 -6 -18 -3 -27 10 -16 23 -104 57 -158 62 -37
3 -40 1 -43 -24 -3 -23 1 -28 20 -28 22 -1 22 -1 4 -15 -18 -14 -14 -15 40
-10 55 4 62 2 107 -31 44 -32 54 -54 24 -54 -7 0 -34 11 -61 25 -27 14 -59 25
-70 24 -13 0 -4 -6 22 -16 36 -13 42 -19 42 -44 0 -31 17 -39 26 -14 4 8 10
15 14 15 12 0 18 -57 8 -74 -6 -11 -5 -16 5 -16 29 0 26 -28 -4 -40 -16 -7
-29 -17 -29 -22 0 -5 3 -7 8 -5 34 18 104 47 113 47 20 0 52 22 41 29 -6 4
-15 31 -21 61 -11 66 -33 125 -53 149 -14 17 -13 18 13 19 39 1 51 -19 69
-110 l16 -80 27 32 c15 17 27 39 27 48 0 14 -2 15 -10 2 -7 -11 -11 -8 -20 15
-25 71 -61 110 -136 148 -52 27 -172 56 -212 52 -34 -4 -35 -4 -7 4 17 5 26 9
21 10 -5 0 -3 8 4 16 17 20 4 35 -31 35 -22 0 -29 -5 -29 -20 0 -11 -6 -20
-12 -20 -10 0 -10 -2 0 -9 8 -5 -17 -11 -65 -15 -43 -3 -88 -9 -101 -12 -18
-5 -24 -1 -33 25 -12 33 -43 58 -54 42z m182 -157 c-3 -3 -12 -4 -19 -1 -8 3
-5 6 6 6 11 1 17 -2 13 -5z m47 -3 c4 -5 -3 -7 -14 -4 -23 6 -26 13 -6 13 8 0
17 -4 20 -9z m179 -13 c10 -5 17 -11 15 -14 -8 -7 -118 20 -118 29 0 10 76 -1
103 -15z m-173 -42 c0 -21 -6 -24 -71 -35 -39 -6 -86 -18 -104 -25 -32 -14
-55 -7 -55 16 0 21 131 64 203 67 22 1 27 -3 27 -23z m408 -71 c0 -38 -1 -39
-8 -10 -4 17 -8 44 -8 60 -1 25 1 27 8 10 5 -11 8 -38 8 -60z m-87 23 c15 -37
15 -60 -2 -100 -13 -31 -21 -34 -38 -14 -13 15 -5 46 11 46 7 0 9 18 5 50 -7
57 4 65 24 18z m19 -128 c0 -5 -5 -10 -11 -10 -5 0 -7 5 -4 10 3 6 8 10 11 10
2 0 4 -4 4 -10z"/>
<path d="M3726 5299 c-14 -11 -26 -29 -26 -40 0 -18 4 -16 26 11 20 23 29 28
40 20 10 -9 13 -7 11 9 -2 27 -17 27 -51 0z"/>
<path d="M3806 5208 c-17 -40 -10 -70 11 -42 13 17 19 74 8 74 -3 0 -12 -14
-19 -32z"/>
<path d="M1586 5208 c-9 -12 -16 -38 -16 -58 1 -31 2 -33 12 -15 11 19 29 95
22 95 -1 0 -10 -10 -18 -22z"/>
<path d="M4161 5175 c3 -67 18 -84 20 -23 1 24 1 46 0 51 0 4 7 7 17 8 14 0
14 2 -3 9 -34 15 -36 12 -34 -45z"/>
<path d="M3644 5195 c4 -16 18 -41 32 -55 l25 -25 -15 30 c-9 17 -16 35 -16
41 0 6 -7 18 -17 25 -15 13 -16 11 -9 -16z"/>
<path d="M1532 5173 c-6 -21 -13 -53 -16 -70 -6 -39 10 -53 93 -77 57 -17 82
-15 34 2 -37 13 -73 45 -73 66 0 9 -7 16 -16 16 -14 0 -16 8 -11 50 3 28 5 50
3 50 -1 0 -8 -17 -14 -37z"/>
<path d="M1940 5153 c1 -45 3 -54 11 -40 5 9 7 22 4 28 -4 5 -1 16 5 24 7 8 9
15 5 15 -4 0 -2 7 5 15 10 13 9 15 -9 15 -19 0 -21 -5 -21 -57z"/>
<path d="M1410 5190 c0 -17 27 -65 44 -79 15 -12 15 -10 1 22 -8 19 -12 36
-10 39 2 2 -5 9 -15 16 -13 8 -20 8 -20 2z"/>
<path d="M3756 5188 c-3 -7 -7 -34 -10 -59 l-5 -47 49 -21 c27 -12 64 -24 82
-26 22 -3 26 -2 13 3 -57 22 -77 37 -82 64 -3 15 -12 28 -19 28 -13 0 -19 25
-15 58 1 6 -1 12 -4 12 -3 0 -7 -6 -9 -12z"/>
<path d="M3830 5131 c-13 -26 -13 -28 5 -28 9 0 15 10 15 24 0 28 -6 29 -20 4z"/>
<path d="M1607 5112 c-22 -24 -21 -28 3 -28 14 0 20 7 20 23 0 28 -2 28 -23 5z"/>
<path d="M4568 5073 c-18 -15 -36 -33 -41 -40 -4 -7 -14 -19 -22 -27 -13 -13
-13 -16 -1 -29 15 -15 12 -51 -7 -74 -14 -19 5 -15 32 6 22 17 24 26 22 76 -2
54 -1 59 31 86 42 36 30 38 -14 2z"/>
<path d="M4070 5074 c0 -8 -8 -14 -17 -14 -15 0 -15 -2 -4 -9 8 -5 11 -16 8
-24 -3 -9 2 -17 14 -20 18 -5 24 6 20 40 -1 6 3 14 9 18 6 4 10 3 9 -2 -5 -27
2 -41 20 -36 11 3 18 14 19 31 0 25 -3 27 -39 29 -27 1 -39 -3 -39 -13z"/>
<path d="M2334 5037 c-43 -37 -69 -87 -46 -87 12 0 11 -34 -1 -41 -5 -4 -7
-12 -3 -18 5 -7 14 -6 30 4 20 13 22 21 18 71 -4 53 -3 57 29 84 19 16 31 29
28 30 -3 0 -27 -19 -55 -43z"/>
<path d="M1570 4960 c8 -5 20 -10 25 -10 6 0 3 5 -5 10 -8 5 -19 10 -25 10 -5
0 -3 -5 5 -10z"/>
<path d="M3848 4963 c7 -3 16 -2 19 1 4 3 -2 6 -13 5 -11 0 -14 -3 -6 -6z"/>
<path d="M3893 4953 c9 -2 23 -2 30 0 6 3 -1 5 -18 5 -16 0 -22 -2 -12 -5z"/>
<path d="M1640 4940 c19 -5 69 -11 110 -14 57 -4 64 -3 30 3 -71 13 -183 22
-140 11z"/>
<path d="M3968 4943 c17 -2 47 -2 65 0 17 2 3 4 -33 4 -36 0 -50 -2 -32 -4z"/>
<path d="M4205 4930 c-13 -6 -15 -9 -5 -9 11 -1 15 -13 15 -48 0 -25 5 -48 10
-50 6 -1 10 8 10 22 0 14 -3 25 -7 25 -4 0 -2 11 4 25 14 31 1 46 -27 35z"/>
<path d="M1988 4858 c7 -82 20 -82 26 0 4 45 2 52 -13 52 -16 0 -17 -7 -13
-52z"/>
<path d="M4398 4837 c-33 -9 -36 -12 -31 -41 5 -35 -12 -90 -26 -81 -6 3 -7
28 -4 56 6 49 5 51 -18 47 -15 -2 -25 -12 -29 -27 -5 -23 -79 -73 -103 -70
-28 3 -39 -2 -33 -16 3 -8 2 -14 -2 -13 -16 3 -40 -15 -36 -27 9 -22 -16 -29
-109 -30 -87 -1 -88 -1 -103 27 -12 24 -21 28 -55 28 -34 0 -47 7 -88 45 -54
50 -67 54 -76 25 -7 -22 5 -93 12 -72 7 20 23 3 23 -24 0 -14 5 -35 11 -47 17
-32 70 -87 101 -103 31 -16 88 -19 88 -4 0 6 -11 10 -24 10 -27 0 -39 19 -25
41 7 12 18 9 62 -14 40 -21 62 -26 82 -21 18 4 26 3 22 -3 -6 -9 9 -10 46 -4
5 0 6 5 2 11 -7 11 126 54 134 42 3 -5 24 0 46 10 35 17 36 19 10 13 -27 -5
-25 -3 14 20 24 14 56 36 72 50 16 13 36 22 44 19 8 -3 19 4 26 18 11 21 11
22 -4 9 -20 -16 -21 -10 -6 42 5 21 14 35 19 32 5 -3 9 10 8 30 -1 19 -4 34
-7 34 -3 -1 -22 -6 -43 -12z"/>
<path d="M2183 4819 c-31 -9 -33 -12 -33 -58 0 -31 -5 -53 -15 -61 -13 -11
-15 -5 -15 44 0 31 -4 56 -9 56 -23 0 -41 -14 -41 -31 0 -23 -76 -69 -113 -69
-17 0 -27 -5 -27 -14 0 -8 -9 -18 -20 -21 -11 -3 -20 -15 -20 -26 0 -20 -2
-21 -65 -23 -22 -1 -59 -6 -83 -10 -39 -7 -44 -6 -49 13 -3 11 -9 19 -13 16
-4 -3 -10 4 -13 15 -4 16 -14 20 -46 20 -36 0 -49 7 -92 47 -45 42 -51 45 -66
31 -20 -21 -10 -90 12 -81 11 4 15 -3 15 -23 1 -36 14 -60 64 -115 35 -38 45
-43 91 -47 29 -2 55 0 59 6 3 5 0 10 -7 9 -46 -1 -57 4 -57 28 0 14 2 25 4 25
18 0 96 -42 92 -49 -4 -5 12 -7 36 -5 39 3 40 2 13 -6 -26 -8 -23 -9 15 -4 25
2 50 11 56 19 11 14 82 35 141 41 34 3 98 33 73 34 -8 0 3 12 25 27 22 15 48
35 59 44 10 10 24 15 31 12 8 -2 18 5 24 16 10 17 9 20 -5 14 -14 -5 -16 -2
-10 23 4 16 15 35 24 42 18 14 24 73 7 71 -5 0 -25 -5 -42 -10z"/>
<path d="M1985 4779 c-4 -6 -5 -12 -2 -15 2 -3 7 2 10 11 7 17 1 20 -8 4z"/>
<path d="M4437 4669 c7 -7 15 -10 18 -7 3 3 -2 9 -12 12 -14 6 -15 5 -6 -5z"/>
<path d="M2215 4621 c-3 -5 -1 -12 5 -16 6 -4 8 -11 5 -16 -4 -5 -1 -9 4 -9
14 0 14 17 1 25 -6 4 -8 11 -5 16 4 5 4 9 1 9 -3 0 -7 -4 -11 -9z"/>
<path d="M3697 4583 c-7 -11 4 -23 33 -37 12 -6 12 -5 -1 6 -9 7 -18 20 -21
28 -3 9 -7 10 -11 3z"/>
<path d="M4485 4560 c-3 -5 1 -10 9 -10 9 0 16 5 16 10 0 6 -4 10 -9 10 -6 0
-13 -4 -16 -10z"/>
<path d="M2270 4529 c0 -5 5 -7 10 -4 6 3 10 8 10 11 0 2 -4 4 -10 4 -5 0 -10
-5 -10 -11z"/>
<path d="M2225 4500 c-3 -5 -2 -10 4 -10 5 0 13 5 16 10 3 6 2 10 -4 10 -5 0
-13 -4 -16 -10z"/>
<path d="M3686 4495 c-3 -8 -1 -15 4 -15 6 0 10 7 10 15 0 8 -2 15 -4 15 -2 0
-6 -7 -10 -15z"/>
<path d="M1468 4479 c-10 -10 -14 -20 -10 -22 4 -2 15 4 24 14 10 10 14 20 10
22 -4 2 -15 -4 -24 -14z"/>
<path d="M2360 4479 c0 -5 5 -7 10 -4 6 3 10 8 10 11 0 2 -4 4 -10 4 -5 0 -10
-5 -10 -11z"/>
<path d="M3771 4486 c2 -2 15 -9 29 -15 24 -11 24 -11 6 3 -16 13 -49 24 -35
12z"/>
<path d="M3897 4482 c-12 -18 10 -33 37 -26 15 3 24 10 19 14 -14 13 -51 21
-56 12z"/>
<path d="M3965 4454 c-16 -7 -40 -13 -52 -14 -13 0 -23 -5 -23 -11 0 -6 -9 -8
-20 -4 -11 3 -20 2 -20 -3 0 -11 66 -31 106 -33 28 -2 27 -2 -6 -9 l-35 -7 37
-2 c20 0 45 -4 55 -7 15 -5 15 -4 3 5 -11 8 6 11 67 11 51 0 85 4 89 12 5 7 3
8 -6 3 -7 -4 -15 -3 -19 3 -10 16 -93 40 -129 37 -28 -3 -31 -1 -21 11 17 21
9 23 -26 8z"/>
<path d="M1666 4445 c4 -10 14 -15 26 -12 12 4 18 1 15 -6 -2 -7 -13 -13 -25
-15 -12 -2 -20 -7 -17 -11 2 -5 -7 -6 -20 -3 -14 2 -25 0 -25 -6 0 -15 116
-32 224 -32 82 0 95 2 84 13 -18 18 -141 41 -178 33 -38 -7 -39 1 -2 16 l27
11 -30 9 c-64 20 -85 20 -79 3z"/>
<path d="M2370 4440 c-8 -5 -12 -12 -9 -15 4 -3 12 1 19 10 14 17 11 19 -10 5z"/>
<path d="M4510 4434 c-18 -10 -20 -14 -8 -14 9 0 19 4 23 10 3 5 13 6 22 3 11
-4 14 -3 9 5 -9 14 -14 14 -46 -4z"/>
<path d="M2298 4419 c-20 -11 -24 -29 -7 -29 5 0 7 5 4 10 -4 7 3 8 20 4 21
-5 26 -3 23 6 -6 18 -20 21 -40 9z"/>
<path d="M3868 4383 c7 -3 16 -2 19 1 4 3 -2 6 -13 5 -11 0 -14 -3 -6 -6z"/>
<path d="M4511 4364 c0 -11 3 -14 6 -6 3 7 2 16 -1 19 -3 4 -6 -2 -5 -13z"/>
<path d="M4038 4363 c7 -3 16 -2 19 1 4 3 -2 6 -13 5 -11 0 -14 -3 -6 -6z"/>
<path d="M4088 4363 c7 -3 16 -2 19 1 4 3 -2 6 -13 5 -11 0 -14 -3 -6 -6z"/>
<path d="M1673 4353 c9 -2 25 -2 35 0 9 3 1 5 -18 5 -19 0 -27 -2 -17 -5z"/>
<path d="M4230 4349 c0 -5 5 -7 10 -4 6 3 10 8 10 11 0 2 -4 4 -10 4 -5 0 -10
-5 -10 -11z"/>
<path d="M1763 4343 c15 -2 37 -2 50 0 12 2 0 4 -28 4 -27 0 -38 -2 -22 -4z"/>
<path d="M2294 4230 c0 -69 1 -97 3 -62 2 34 2 90 0 125 -2 34 -3 6 -3 -63z"/>
<path d="M3860 4326 c13 -15 26 -22 28 -17 5 16 18 13 37 -6 13 -13 21 -14 35
-6 13 9 21 8 32 -4 13 -12 19 -13 37 -1 18 11 23 11 30 -1 8 -12 12 -12 26 2
15 16 15 17 -7 18 -67 1 -130 12 -223 36 -18 5 -18 3 5 -21z"/>
<path d="M2005 4320 c-3 -5 -2 -10 4 -10 5 0 13 5 16 10 3 6 2 10 -4 10 -5 0
-13 -4 -16 -10z"/>
<path d="M1620 4314 c0 -2 7 -12 16 -23 14 -16 21 -17 35 -8 15 9 21 8 33 -8
12 -16 16 -17 30 -6 13 11 18 10 32 -3 12 -12 20 -14 29 -6 7 6 25 8 39 4 16
-4 26 -2 26 5 0 6 -1 11 -2 11 -2 1 -30 3 -63 6 -33 3 -86 12 -117 19 -32 7
-58 11 -58 9z"/>
<path d="M4512 4280 c0 -14 2 -19 5 -12 2 6 2 18 0 25 -3 6 -5 1 -5 -13z"/>
<path d="M1572 4265 c0 -16 2 -22 5 -12 2 9 2 23 0 30 -3 6 -5 -1 -5 -18z"/>
<path d="M11108 3601 l-666 -669 -45 5 c-92 11 -322 -85 -511 -212 -61 -40
-107 -65 -118 -62 -9 3 -30 -6 -45 -20 -15 -13 -72 -53 -125 -89 -53 -36 -102
-72 -109 -80 -6 -8 -16 -14 -21 -14 -12 0 -31 -15 -92 -75 -28 -27 -67 -62
-86 -77 -39 -32 -38 -33 20 -13 46 16 175 21 184 6 3 -5 14 -7 24 -4 10 2 31
-3 47 -11 17 -9 38 -16 47 -16 9 0 18 -5 20 -11 2 -5 19 -12 37 -15 37 -6 96
-40 153 -89 38 -32 124 -135 113 -135 -3 0 4 -10 15 -22 12 -13 37 -55 57 -95
26 -54 34 -79 29 -100 -5 -21 -4 -24 4 -13 8 12 10 10 10 -12 0 -14 -6 -29
-12 -31 -7 -3 -4 -6 6 -6 20 -1 20 -1 0 -17 -13 -11 -15 -17 -6 -20 15 -7 16
-34 0 -34 -6 0 -8 -3 -5 -7 4 -3 2 -13 -5 -20 -9 -11 -9 -16 1 -23 11 -6 11
-15 2 -41 -6 -18 -9 -34 -7 -36 5 -5 165 181 203 237 17 25 85 115 152 200
113 146 142 200 107 200 -7 0 -25 -9 -39 -20 -15 -12 -33 -18 -44 -14 -14 4
-15 4 -4 -4 11 -8 9 -12 -10 -23 -23 -12 -23 -11 -9 6 14 17 13 18 -5 12 -16
-6 -15 -3 5 13 14 11 31 18 38 15 7 -3 10 -1 7 5 -3 5 5 14 17 21 34 18 44 33
108 164 65 135 124 331 93 312 -5 -3 -8 13 -8 34 0 39 11 50 568 608 l568 567
9 125 c12 158 12 269 1 269 -4 0 -307 -301 -673 -669z m-528 -773 c0 -14 -81
-128 -91 -128 -5 0 -9 -7 -9 -15 0 -9 -7 -18 -15 -21 -8 -4 -15 -10 -15 -16 0
-14 -27 -38 -34 -31 -3 4 -6 1 -6 -5 0 -7 -7 -12 -15 -12 -8 0 -15 -4 -15 -8
0 -12 -83 -97 -95 -97 -5 0 -10 -5 -10 -12 0 -6 -3 -15 -7 -19 -13 -12 -9 10
12 71 24 70 28 144 6 126 -7 -6 -23 -39 -36 -74 -30 -87 -44 -117 -51 -117 -4
0 -6 -12 -6 -26 0 -15 -5 -29 -10 -33 -6 -3 -14 -17 -18 -30 -4 -14 -16 -34
-27 -45 -10 -12 -17 -28 -15 -37 9 -32 -32 -13 -97 45 l-65 59 24 23 c18 17
21 24 12 34 -9 10 -9 11 0 6 7 -4 20 2 30 13 9 11 20 18 25 15 4 -3 8 0 8 6 0
12 60 70 73 70 4 0 6 4 2 9 -3 5 3 12 12 16 10 3 41 34 68 69 48 61 51 63 76
50 23 -12 28 -10 50 14 32 36 113 102 158 128 l36 21 23 -20 c12 -11 22 -24
22 -29z m-606 -475 c16 6 83 -49 73 -60 -5 -4 -13 0 -18 10 -8 13 -14 15 -30
7 -18 -10 -24 -4 -20 23 0 4 -3 7 -9 7 -17 0 -11 -18 15 -46 29 -31 30 -34 13
-34 -7 0 -28 14 -45 30 -27 24 -32 34 -27 59 6 27 8 28 21 15 9 -8 21 -13 27
-11z m-104 -104 c0 -5 4 -8 9 -4 5 3 22 -6 38 -20 28 -26 28 -26 2 -10 -24 14
-27 14 -33 0 -3 -9 -2 -13 4 -10 9 6 11 1 14 -33 1 -7 8 -17 16 -22 8 -5 11
-12 8 -16 -8 -7 -68 33 -68 47 0 5 -7 9 -16 9 -10 0 -14 5 -10 16 3 8 2 12 -4
9 -6 -3 -10 1 -10 9 0 8 5 18 12 22 7 5 9 2 4 -7 -4 -8 -1 -6 6 4 14 19 28 22
28 6z"/>
<path d="M9980 2346 c0 -2 8 -10 18 -17 15 -13 16 -12 3 4 -13 16 -21 21 -21
13z"/>
<path d="M2063 4220 c0 -25 2 -35 4 -22 2 12 2 32 0 45 -2 12 -4 2 -4 -23z"/>
<path d="M1931 4234 c0 -11 3 -14 6 -6 3 7 2 16 -1 19 -3 4 -6 -2 -5 -13z"/>
<path d="M4513 4215 c0 -22 2 -30 4 -17 2 12 2 30 0 40 -3 9 -5 -1 -4 -23z"/>
<path d="M1571 4214 c0 -11 3 -14 6 -6 3 7 2 16 -1 19 -3 4 -6 -2 -5 -13z"/>
<path d="M2132 4210 c0 -14 2 -19 5 -12 2 6 2 18 0 25 -3 6 -5 1 -5 -13z"/>
<path d="M4512 4145 c0 -16 2 -22 5 -12 2 9 2 23 0 30 -3 6 -5 -1 -5 -18z"/>
<path d="M3801 4144 c0 -11 3 -14 6 -6 3 7 2 16 -1 19 -3 4 -6 -2 -5 -13z"/>
<path d="M4495 4074 c-16 -13 -53 -36 -82 -51 -29 -15 -51 -29 -49 -31 10 -9
163 77 171 96 7 18 -7 14 -40 -14z"/>
<path d="M2278 4048 c-24 -18 -64 -43 -90 -56 -63 -30 -61 -37 2 -12 77 30 99
44 129 83 20 25 8 21 -41 -15z"/>
<path d="M4291 4044 c0 -11 3 -14 6 -6 3 7 2 16 -1 19 -3 4 -6 -2 -5 -13z"/>
<path d="M2131 4034 c0 -11 3 -14 6 -6 3 7 2 16 -1 19 -3 4 -6 -2 -5 -13z"/>
<path d="M4161 4033 c-1 -12 -9 -24 -18 -26 -17 -4 -17 -5 0 -6 19 -1 32 21
24 41 -3 7 -6 3 -6 -9z"/>
<path d="M2060 4009 c0 -5 5 -7 10 -4 6 3 10 8 10 11 0 2 -4 4 -10 4 -5 0 -10
-5 -10 -11z"/>
<path d="M4190 4009 c-13 -9 -12 -10 3 -5 9 3 17 1 17 -3 0 -11 -88 -32 -153
-36 -27 -2 -51 -6 -55 -9 -24 -24 110 -27 136 -2 10 9 30 16 45 16 26 0 53 30
40 44 -9 8 -16 7 -33 -5z"/>
<path d="M4068 4003 c6 -2 18 -2 25 0 6 3 1 5 -13 5 -14 0 -19 -2 -12 -5z"/>
<path d="M1950 3954 c-25 -7 -75 -13 -112 -13 -68 -1 -85 -11 -49 -31 26 -13
112 -13 131 1 12 9 11 10 -5 4 -15 -5 -17 -3 -9 5 6 6 31 14 54 17 34 5 41 3
35 -7 -5 -8 -4 -11 3 -7 5 4 8 16 5 27 -3 11 -6 19 -7 19 0 -1 -21 -7 -46 -15z"/>
<path d="M3803 3944 c8 -42 20 -411 14 -421 -3 -5 -69 -1 -149 9 -278 34 -634
43 -923 22 -175 -12 -562 -64 -585 -79 -17 -10 -23 93 -16 273 6 174 5 184
-11 177 -142 -54 -363 -56 -506 -4 -28 10 -52 19 -52 19 0 0 6 -131 13 -291 8
-160 11 -301 8 -313 -4 -17 -18 -25 -58 -35 -29 -8 -75 -24 -103 -36 -27 -12
-61 -26 -75 -30 -14 -4 -43 -15 -65 -25 -22 -10 -74 -32 -115 -50 -150 -64
-349 -169 -540 -285 -115 -69 -293 -187 -301 -199 -4 -5 -7 -496 -8 -1092 l0
-1084 53 0 53 0 92 110 c125 150 274 305 437 456 18 16 50 45 71 65 51 47 228
181 323 244 41 27 77 52 80 56 3 3 48 29 100 59 52 29 107 61 122 71 40 29 58
25 59 -13 3 -86 5 -216 7 -615 l2 -433 171 0 c150 0 170 2 165 15 -7 20 -9
1415 -2 1423 4 3 6 -36 6 -86 0 -59 4 -92 11 -92 9 0 171 50 219 68 8 3 22 6
31 8 9 2 62 15 119 29 96 25 163 38 250 50 19 3 51 8 70 11 19 2 130 7 246 11
215 6 396 -4 569 -32 93 -15 334 -80 348 -94 10 -10 14 -238 16 -833 l1 -478
169 0 170 0 -4 188 c-2 146 -5 884 -3 1012 0 16 2 19 5 8 3 -11 59 -46 141
-87 346 -174 602 -345 882 -587 114 -98 311 -290 405 -394 l68 -75 -7 65 c-4
36 -6 72 -5 80 1 8 3 120 3 248 l1 233 -47 45 c-50 47 -56 56 -35 52 13 -3 43
-33 58 -58 21 -35 27 21 26 218 -2 182 -4 204 -19 213 -10 6 -18 15 -18 21 0
7 5 7 14 -1 11 -10 15 -8 19 6 8 27 7 1057 -1 1070 -10 15 -107 76 -247 155
-117 66 -458 238 -473 238 -4 0 -54 21 -112 46 -93 41 -450 165 -557 193 -48
13 -47 12 -33 109 5 37 11 156 13 265 4 167 2 197 -10 193 -54 -21 -128 -37
-149 -32 -14 4 -24 2 -24 -4 0 -6 -40 -9 -112 -6 -104 3 -167 16 -252 51 -16
7 -18 4 -13 -21z m484 -1446 c-2 -13 -4 -3 -4 22 0 25 2 35 4 23 2 -13 2 -33
0 -45z m0 -180 c-2 -13 -4 -3 -4 22 0 25 2 35 4 23 2 -13 2 -33 0 -45z m0
-305 c-1 -49 -3 -9 -3 87 0 96 2 136 3 88 2 -49 2 -127 0 -175z m1323 187 c0
-5 -2 -10 -4 -10 -3 0 -8 5 -11 10 -3 6 -1 10 4 10 6 0 11 -4 11 -10z m-1673
-132 c-3 -8 -6 -5 -6 6 -1 11 2 17 5 13 3 -3 4 -12 1 -19z m350 -180 c-3 -7
-5 -2 -5 12 0 14 2 19 5 13 2 -7 2 -19 0 -25z m0 -80 c-3 -7 -5 -2 -5 12 0 14
2 19 5 13 2 -7 2 -19 0 -25z m1308 2 c3 -5 2 -10 -4 -10 -5 0 -13 5 -16 10 -3
6 -2 10 4 10 5 0 13 -4 16 -10z m-475 -70 c0 -5 -2 -10 -4 -10 -3 0 -8 5 -11
10 -3 6 -1 10 4 10 6 0 11 -4 11 -10z m580 -10 c0 -5 -5 -10 -11 -10 -5 0 -7
5 -4 10 3 6 8 10 11 10 2 0 4 -4 4 -10z m30 -31 c0 -6 -4 -7 -10 -4 -5 3 -10
11 -10 16 0 6 5 7 10 4 6 -3 10 -11 10 -16z m-90 -374 c0 -3 -11 2 -25 11 -14
9 -22 21 -19 26 6 9 44 -23 44 -37z m40 -517 c0 -6 -6 -5 -15 2 -8 7 -15 14
-15 16 0 2 7 1 15 -2 8 -4 15 -11 15 -16z"/>
<path d="M7407 3420 c-52 -51 -52 -51 -17 -37 19 8 51 30 72 50 30 31 33 37
16 37 -11 0 -43 -23 -71 -50z"/>
<path d="M7430 3356 c0 -8 5 -18 10 -21 6 -3 10 3 10 14 0 12 -4 21 -10 21 -5
0 -10 -6 -10 -14z"/>
<path d="M7539 3328 c-14 -18 -32 -44 -39 -58 -7 -14 -25 -37 -39 -52 -14 -14
-36 -37 -49 -50 l-22 -24 24 -23 24 -23 55 54 c59 56 82 110 75 176 l-3 32
-26 -32z"/>
<path d="M7350 3340 c0 -5 5 -10 10 -10 6 0 10 5 10 10 0 6 -4 10 -10 10 -5 0
-10 -4 -10 -10z"/>
<path d="M7596 3293 c-6 -14 -5 -15 5 -6 7 7 10 15 7 18 -3 3 -9 -2 -12 -12z"/>
<path d="M7243 3238 c-4 -7 -8 -18 -9 -23 -2 -16 36 -16 51 -1 10 10 9 15 -6
24 -23 15 -26 15 -36 0z"/>
<path d="M7181 3151 c-21 -21 -60 -51 -89 -66 -42 -22 -113 -91 -101 -98 2 -1
14 -8 27 -15 22 -12 24 -11 35 17 6 16 20 32 31 35 35 9 78 7 71 -4 -3 -6 4
-10 17 -10 13 0 40 -5 61 -11 36 -10 37 -11 23 -31 -11 -15 -12 -26 -5 -40 5
-10 6 -18 1 -18 -5 0 -14 -12 -20 -26 -7 -15 -17 -22 -24 -18 -7 5 -8 3 -3 -5
5 -9 13 -7 29 8 12 12 27 21 32 21 5 0 10 10 11 21 3 38 19 44 59 26 29 -14
34 -20 24 -32 -6 -7 -17 -13 -23 -11 -7 1 -9 1 -4 -1 4 -3 7 -11 7 -19 0 -26
49 -28 83 -4 l31 23 58 -63 c32 -34 71 -90 87 -124 36 -75 48 -111 32 -102 -6
4 -11 2 -11 -4 0 -7 -8 -9 -20 -5 -25 8 -27 -10 -2 -24 15 -9 15 -10 -3 -9
-38 1 -75 -20 -76 -44 0 -13 -3 -17 -6 -10 -2 6 -9 10 -13 7 -5 -3 -6 -13 -3
-22 5 -12 3 -14 -8 -8 -11 7 -11 5 1 -10 14 -17 13 -18 -4 -12 -13 5 -25 1
-37 -12 -13 -14 -15 -21 -6 -24 8 -3 3 -12 -13 -25 -17 -14 -27 -17 -32 -9
-10 17 -20 2 -20 -29 0 -18 -3 -22 -9 -13 -8 13 -13 5 -10 -13 2 -13 -17 -9
-22 5 -3 6 -6 -2 -6 -18 -1 -17 -7 -37 -13 -43 -10 -10 -10 -15 -1 -20 6 -4
10 -20 9 -35 -2 -15 1 -27 6 -27 4 0 6 -11 4 -25 -3 -16 -1 -23 5 -19 6 3 8 9
5 12 -3 3 -1 11 5 19 6 7 9 13 5 13 -3 0 15 20 39 45 25 24 45 49 45 55 0 5 4
10 10 10 5 0 26 16 45 35 32 30 35 37 25 57 -11 22 -10 22 4 4 9 -11 16 -14
16 -8 0 7 6 12 14 12 8 0 17 7 20 16 3 8 10 13 15 10 5 -3 11 1 15 9 3 8 12
12 21 9 10 -4 15 0 15 12 0 9 2 15 5 12 13 -12 -23 -93 -58 -134 -20 -23 -34
-45 -30 -47 11 -7 122 39 145 60 10 9 30 40 44 69 33 67 35 174 4 260 -41 119
-159 274 -207 274 -37 0 -90 36 -101 70 -6 16 -29 53 -51 83 -30 40 -51 57
-80 65 -66 20 -89 15 -130 -27z m129 9 c0 -12 -32 -22 -67 -22 -56 1 -59 2
-37 20 15 13 33 17 63 14 22 -2 41 -8 41 -12z m256 -282 c77 -85 70 -89 -11
-6 -33 34 -51 56 -40 50 11 -6 34 -25 51 -44z"/>
<path d="M7124 3009 c-3 -6 -2 -15 3 -20 5 -5 9 -1 9 11 0 23 -2 24 -12 9z"/>
<path d="M7054 2951 c3 -5 15 -7 26 -4 28 7 25 13 -6 13 -14 0 -23 -4 -20 -9z"/>
<path d="M7098 2918 c-28 -44 -29 -58 -5 -58 19 0 22 5 22 40 0 22 -1 40 -1
40 -1 0 -8 -10 -16 -22z"/>
<path d="M6897 2653 c5 -14 4 -16 -8 -8 -8 6 -21 10 -29 9 -8 -1 -22 -2 -30
-3 -13 -1 -13 -2 0 -11 8 -5 11 -10 6 -10 -5 0 -3 -7 4 -15 21 -26 -10 -18
-32 7 -19 22 -20 22 -34 4 -7 -10 -11 -22 -9 -27 10 -15 -16 -21 -33 -8 -14
11 -15 11 -5 0 8 -10 6 -21 -13 -48 -29 -43 -38 -89 -31 -159 6 -56 45 -141
85 -184 81 -87 129 -130 163 -146 22 -9 39 -21 39 -26 0 -5 4 -6 10 -3 5 3 21
-2 35 -11 24 -16 50 -15 137 1 31 6 70 35 75 56 3 10 9 19 13 19 9 0 18 33 26
91 7 50 -32 183 -63 213 -13 11 -23 26 -23 31 0 6 -13 21 -29 35 -17 13 -28
27 -26 30 2 4 -9 14 -26 24 -16 9 -29 21 -29 25 0 5 -11 11 -25 13 -21 4 -24
2 -20 -16 15 -66 25 -112 25 -118 0 -12 -40 -9 -100 8 -30 8 -60 16 -67 18
-21 4 -27 15 -40 78 -11 55 -11 63 5 75 9 7 26 12 37 12 36 -2 46 1 40 11 -3
6 1 10 9 10 9 0 16 7 16 16 0 11 -6 14 -20 9 -11 -4 -20 -2 -20 4 0 6 -4 11
-10 11 -5 0 -6 -8 -3 -17z m-39 -28 c-3 -3 -9 2 -12 12 -6 14 -5 15 5 6 7 -7
10 -15 7 -18z m45 11 c13 5 16 2 11 -10 -5 -12 -10 -13 -25 -5 -10 5 -19 15
-19 22 0 9 2 9 8 -1 5 -7 16 -10 25 -6z m-138 -317 c11 -17 -1 -21 -15 -4 -8
9 -8 15 -2 15 6 0 14 -5 17 -11z m355 -84 c11 -13 10 -14 -4 -9 -9 3 -16 10
-16 15 0 13 6 11 20 -6z m-144 -142 c-7 -7 -26 7 -26 19 0 6 6 6 15 -2 9 -7
13 -15 11 -17z"/>
<path d="M6990 2636 c0 -2 7 -7 16 -10 8 -3 12 -2 9 4 -6 10 -25 14 -25 6z"/>
<path d="M6950 2609 c0 -5 5 -7 10 -4 6 3 10 8 10 11 0 2 -4 4 -10 4 -5 0 -10
-5 -10 -11z"/>
<path d="M7104 2577 c11 -7 34 -25 53 -41 18 -16 36 -26 39 -24 6 6 -90 78
-102 77 -5 0 0 -6 10 -12z"/>
<path d="M7230 2476 c0 -2 8 -10 18 -17 15 -13 16 -12 3 4 -13 16 -21 21 -21
13z"/>
<path d="M7410 2409 c0 -5 5 -7 10 -4 6 3 10 8 10 11 0 2 -4 4 -10 4 -5 0 -10
-5 -10 -11z"/>
<path d="M7291 2344 c0 -11 3 -14 6 -6 3 7 2 16 -1 19 -3 4 -6 -2 -5 -13z"/>
<path d="M8480 1326 c0 -2 9 -6 20 -9 11 -3 18 -1 14 4 -5 9 -34 13 -34 5z"/>
<path d="M8318 1290 c-21 -17 -47 -44 -58 -60 l-21 -30 32 4 c18 2 35 9 37 16
3 9 -2 10 -19 5 -21 -7 -22 -6 -10 9 15 18 46 22 35 4 -5 -8 -2 -9 10 -5 12 5
8 -7 -15 -38 -21 -29 -42 -46 -61 -51 -22 -4 -27 -9 -19 -17 6 -6 11 -16 11
-21 0 -6 -5 -4 -10 4 -8 13 -10 13 -10 -2 0 -9 7 -24 16 -32 14 -15 14 -16 -3
-17 -16 0 -16 -1 2 -10 15 -7 24 -27 33 -67 17 -84 31 -115 48 -112 5 1 10 -4
13 -11 2 -8 -2 -10 -12 -6 -9 3 -19 1 -23 -5 -4 -7 -3 -8 4 -4 6 4 17 -5 26
-21 8 -15 18 -28 23 -28 4 0 7 -6 5 -14 -2 -9 2 -12 13 -7 9 3 13 2 10 -4 -9
-14 8 -12 24 3 8 6 6 0 -3 -15 -10 -15 -13 -29 -7 -32 5 -3 12 0 15 6 3 7 5 4
3 -7 -3 -24 29 -59 45 -49 6 4 8 3 5 -3 -10 -16 78 -88 148 -122 69 -32 89
-51 55 -51 -13 0 -19 4 -14 12 4 7 3 8 -5 4 -22 -14 1 -28 33 -21 51 12 186
21 186 13 0 -5 -7 -8 -15 -8 -8 0 -15 -3 -15 -8 0 -8 -54 -6 -87 4 -17 5 -23
2 -23 -9 0 -10 10 -15 34 -15 19 0 39 -3 44 -6 5 -3 24 1 41 10 17 8 35 13 41
9 5 -3 10 -2 10 2 0 5 9 14 20 20 16 10 18 10 14 -1 -5 -12 9 -14 48 -7 4 0 5
8 1 17 -5 13 -7 13 -14 2 -5 -8 -9 -9 -9 -2 0 6 7 17 15 24 13 10 18 11 28 1
9 -10 8 -11 -8 -5 -16 6 -18 4 -8 -6 10 -11 15 -11 28 0 15 13 15 15 1 26 -14
10 -13 14 8 37 13 14 22 28 20 30 -2 2 3 4 11 4 13 0 13 -3 -1 -18 -26 -29 1
-30 30 0 17 18 24 34 20 45 -4 11 -10 13 -18 7 -7 -6 -17 -6 -26 -1 -10 7 -11
10 -3 10 7 0 12 9 10 20 -5 32 -16 35 -27 6 -15 -41 -37 -58 -81 -63 -53 -6
-76 2 -59 22 7 8 9 15 5 15 -12 0 37 45 63 59 12 6 22 18 22 26 0 8 7 15 15
15 8 0 15 5 15 11 0 8 4 8 15 -1 8 -6 13 -17 12 -23 -1 -6 7 -13 19 -15 18 -3
20 1 16 30 -4 27 -6 29 -12 14 -7 -20 -7 -20 -12 0 -3 10 -2 28 2 39 5 14 1
28 -14 44 -20 23 -20 24 -1 18 19 -7 19 -6 3 7 -10 7 -18 18 -18 24 0 6 -10
18 -22 26 -15 11 -18 16 -8 16 10 0 8 6 -8 18 -13 10 -24 27 -25 39 0 12 -4
20 -8 17 -4 -2 -10 6 -13 19 -6 22 -7 21 -28 -8 -33 -44 -122 -134 -104 -104
15 24 15 27 -5 45 -12 10 -35 38 -51 62 -16 23 -34 42 -39 42 -6 0 -31 -16
-55 -36 -31 -25 -44 -32 -44 -21 0 15 69 77 86 77 5 1 26 16 48 35 38 34 44
65 12 65 -7 0 -17 7 -20 16 -3 9 -13 14 -20 11 -8 -3 -20 1 -26 8 -7 8 -16 12
-21 9 -16 -10 -48 6 -42 21 3 8 9 12 14 9 5 -3 9 0 9 6 0 7 -7 10 -15 7 -8 -4
-17 -2 -20 3 -4 6 -12 10 -18 10 -9 0 -9 -2 0 -8 8 -5 9 -13 3 -22 -6 -10 -10
-11 -10 -3 0 7 -6 10 -14 7 -8 -3 -20 3 -27 14 -11 17 -15 18 -26 6 -18 -17
-37 -18 -27 -1 6 9 5 9 -7 0 -8 -7 -24 -12 -34 -13 -48 -1 -65 -5 -65 -15 0
-16 -38 -16 -44 1 -3 7 -2 13 2 13 4 -1 10 0 15 1 4 1 15 3 25 5 9 1 28 7 42
13 23 10 20 11 -25 11 -42 1 -57 -4 -87 -29z m384 -98 c-33 -53 -52 -76 -57
-70 -7 7 55 98 67 98 4 0 0 -13 -10 -28z m-146 -154 c29 -28 31 -54 3 -68 -43
-24 -92 43 -57 78 17 17 27 15 54 -10z m390 -20 c4 -6 3 -8 -3 -5 -6 4 -16 0
-23 -8 -7 -8 -17 -15 -23 -15 -5 0 -2 9 8 20 21 23 31 25 41 8z m-24 -85 c20
-18 24 -58 7 -68 -19 -12 -59 5 -71 30 -20 45 26 73 64 38z m-113 -41 c-6 -10
-21 -25 -33 -32 -20 -12 -20 -12 -6 6 30 40 43 54 47 50 3 -2 -1 -13 -8 -24z
m203 -7 c5 -22 2 -25 -23 -25 -33 0 -36 6 -12 32 22 24 30 23 35 -7z m-258
-71 c23 -23 21 -71 -4 -79 -27 -9 -59 11 -66 40 -12 47 36 73 70 39z"/>
<path d="M8550 1316 c0 -2 7 -6 15 -10 8 -3 15 -1 15 4 0 6 -7 10 -15 10 -8 0
-15 -2 -15 -4z"/>
<path d="M8690 1311 c0 -9 30 -24 36 -18 2 1 -6 8 -16 15 -11 7 -20 8 -20 3z"/>
<path d="M8272 1180 c-7 -11 -8 -20 -3 -20 9 0 24 30 18 36 -1 2 -8 -6 -15
-16z"/>
<path d="M8236 1181 c-4 -7 -5 -15 -2 -18 9 -9 19 4 14 18 -4 11 -6 11 -12 0z"/>
<path d="M8896 1156 c3 -8 13 -17 22 -21 13 -5 13 -2 -3 15 -21 24 -26 25 -19
6z"/>
<path d="M8897 1089 c7 -7 15 -10 18 -7 3 3 -2 9 -12 12 -14 6 -15 5 -6 -5z"/>
<path d="M8220 1016 c0 -2 7 -6 15 -10 8 -3 15 -1 15 4 0 6 -7 10 -15 10 -8 0
-15 -2 -15 -4z"/>
<path d="M9130 859 c0 -5 5 -7 10 -4 6 3 10 8 10 11 0 2 -4 4 -10 4 -5 0 -10
-5 -10 -11z"/>
<path d="M9146 827 c3 -10 9 -15 12 -12 3 3 0 11 -7 18 -10 9 -11 8 -5 -6z"/>
<path d="M9100 797 c0 -14 5 -29 10 -32 7 -4 8 3 4 22 -9 38 -14 42 -14 10z"/>
<path d="M9070 706 c0 -22 3 -27 11 -19 8 8 8 16 0 30 -9 16 -10 14 -11 -11z"/>
<path d="M9100 715 c0 -8 2 -15 4 -15 2 0 6 7 10 15 3 8 1 15 -4 15 -6 0 -10
-7 -10 -15z"/>
<path d="M9020 576 c0 -9 5 -16 10 -16 6 0 10 4 10 9 0 6 -4 13 -10 16 -5 3
-10 -1 -10 -9z"/>
<path d="M8610 530 c0 -5 5 -10 11 -10 5 0 7 5 4 10 -3 6 -8 10 -11 10 -2 0
-4 -4 -4 -10z"/>
</g>
</svg>
